<svg width="121" height="121" viewBox="0 0 121 121" fill="none" xmlns="http://www.w3.org/2000/svg">
<path d="M10.6989 51.147C18.5972 9.9394 29.122 2.80025 70.3296 10.6985C111.537 18.5968 118.676 29.1216 110.778 70.3292C102.88 111.537 92.3549 118.676 51.1473 110.778C9.9398 102.879 2.80065 92.3545 10.6989 51.147Z" fill="#FF7449"/>
<path d="M76.2492 50.9129L85.0329 52.5089L78.8616 86.4727L67.1499 84.3447L72.9004 52.6972" stroke="white" stroke-width="1.3" stroke-linecap="round" stroke-linejoin="round"/>
<path d="M79.4246 42.3677C79.8308 44.3086 79.5513 46.3302 78.634 48.0881C77.7167 49.8461 76.2182 51.2315 74.3939 52.0085C72.5696 52.7854 70.5323 52.9058 68.6292 52.3491C66.7261 51.7923 65.0749 50.5929 63.9569 48.9552C62.839 47.3176 62.3235 45.3429 62.4983 43.3677C62.673 41.3926 63.5272 39.5391 64.9154 38.1232C66.3035 36.7072 68.1396 35.8164 70.1109 35.6024C72.0822 35.3885 74.0667 35.8647 75.7263 36.9499" stroke="white" stroke-width="1.3" stroke-linecap="round" stroke-linejoin="round"/>
<path d="M33.1865 78.1738L83.5467 87.3245" stroke="white" stroke-width="1.3" stroke-linecap="round" stroke-linejoin="round"/>
<rect x="39.6787" y="62.4155" width="11.9034" height="16.6648" transform="rotate(10.2985 39.6787 62.4155)" stroke="white" stroke-width="1.3" stroke-linecap="round" stroke-linejoin="round"/>
<path d="M55.3343 62.8137L51.9246 81.5784L63.6363 83.7064L68.1052 59.1119L61.0782 57.8351" stroke="white" stroke-width="1.3" stroke-linecap="round" stroke-linejoin="round"/>
<path d="M61.0471 54.238C61.3676 55.7694 61.1471 57.3646 60.4233 58.7517C59.6995 60.1389 58.5171 61.2321 57.0776 61.8451C55.6381 62.4582 54.0305 62.5532 52.5289 62.1139C51.0272 61.6746 49.7243 60.7282 48.8422 59.4359C47.9601 58.1437 47.5533 56.5856 47.6912 55.0271C47.8291 53.4685 48.5031 52.006 49.5984 50.8888C50.6938 49.7715 52.1426 49.0686 53.6981 48.8998C55.2535 48.731 56.8194 49.1067 58.1289 49.963" stroke="white" stroke-width="1.3" stroke-linecap="round" stroke-linejoin="round"/>
<path d="M71.864 46.5231C71.9258 46.1828 71.8686 45.8829 71.6925 45.6235C71.517 45.3601 71.1931 45.0944 70.7208 44.8267C70.2491 44.5549 69.887 44.3175 69.6344 44.1144C68.7927 43.4446 68.4609 42.6193 68.6391 41.6386C68.7598 40.9741 69.0612 40.4644 69.5434 40.1095C70.0255 39.7547 70.6201 39.6001 71.3272 39.6459L71.565 38.3369L72.5257 38.5115L72.2857 39.8325C72.9641 40.0591 73.4486 40.4532 73.7395 41.0146C74.031 41.5721 74.1055 42.2431 73.9629 43.0277L72.5098 42.7637C72.6015 42.2593 72.5594 41.8423 72.3836 41.5126C72.2125 41.1796 71.9329 40.9779 71.5446 40.9073C71.1603 40.8375 70.8411 40.887 70.5872 41.0559C70.3332 41.2248 70.1709 41.5034 70.1003 41.8917C70.0371 42.2399 70.0922 42.5394 70.2658 42.7901C70.4442 43.0376 70.7724 43.3019 71.2506 43.5832C71.7288 43.8644 72.0995 44.1116 72.3626 44.3248C72.6258 44.5381 72.8385 44.7669 73.0008 45.0115C73.1639 45.252 73.2751 45.5162 73.3344 45.804C73.3938 46.0918 73.3907 46.4159 73.3252 46.7762C73.2023 47.4527 72.8945 47.9633 72.4018 48.3079C71.9131 48.6533 71.2916 48.7968 70.5372 48.7383L70.3245 49.9092L69.3698 49.7357L69.5814 48.5708C68.8048 48.3387 68.246 47.9436 67.905 47.3854C67.5679 46.8279 67.4714 46.1529 67.6155 45.3603L69.0746 45.6254C68.9829 46.1298 69.0381 46.543 69.2401 46.865C69.4461 47.1878 69.7813 47.3914 70.2456 47.4757C70.702 47.5587 71.0682 47.5115 71.3444 47.3342C71.6246 47.1577 71.7978 46.8873 71.864 46.5231Z" fill="white"/>
</svg>
