<svg width="167" height="168" viewBox="0 0 167 168" fill="none" xmlns="http://www.w3.org/2000/svg">
<g filter="url(#filter0_d_2926_250)">
<path d="M45.4145 81.8775C34.3668 50.5466 38.7141 41.4637 70.0449 30.4161C101.376 19.3685 110.459 23.7158 121.506 55.0466C132.554 86.3774 128.207 95.4603 96.8758 106.508C65.545 117.556 56.4621 113.208 45.4145 81.8775Z" fill="white"/>
</g>
<path d="M68.6315 78.2669C68.165 79.0217 68.0653 80.2272 69.1542 80.9316C70.931 82.081 72.3498 80.3318 73.102 78.9963" stroke="#3D50F9" stroke-width="1.3"/>
<path d="M90.2792 66.7796L100.79 69.3029C101.954 69.5822 103.132 68.898 103.466 67.7487C103.81 66.5659 103.135 65.3273 101.955 64.9749L84.3286 59.7112L78.3828 65.6703C77.8332 66.2211 77.0023 66.3789 76.289 66.0679C75.2563 65.6177 74.8441 64.37 75.4052 63.3932L78.9693 57.189C79.8201 55.708 81.3175 54.713 83.0125 54.5024L93.6812 53.1767L98.6663 49.3803M102.241 65.0604L106.031 62.7527M78.13 58.4919L76.5972 58.564C75.0576 58.6364 73.6025 59.289 72.5245 60.3906L71.2335 61.7098C70.6084 62.3486 69.7345 62.681 68.8429 62.6192L65.4988 62.3872M62.9225 77.3783L75.7877 79.5029" stroke="#3D50F9" stroke-width="1.3"/>
<path d="M98.0862 68.653L99.8858 69.0816C100.941 69.333 101.584 70.4033 101.31 71.4533C101.06 72.407 100.134 73.0209 99.1584 72.8788L89.1348 71.418" stroke="#3D50F9" stroke-width="1.3"/>
<path d="M95.9672 72.4112L97.7977 72.6709C98.8727 72.8234 99.6122 73.83 99.4362 74.9014C99.2765 75.8739 98.4118 76.5713 97.4276 76.5213L89.1486 76.1009" stroke="#3D50F9" stroke-width="1.3"/>
<path d="M93.2837 76.2974L95.1269 76.454C96.2083 76.5459 97.0026 77.5089 96.8872 78.588C96.7823 79.5682 95.9573 80.3129 94.9715 80.3171L88.1871 80.3514" stroke="#3D50F9" stroke-width="1.3"/>
<path d="M75.7468 77.2071C75.6875 76.0818 76.5517 75.1216 77.677 75.0624C78.8022 75.0032 79.7624 75.8674 79.8216 76.9926L80.0069 80.5131C80.0661 81.6384 79.2019 82.5985 78.0767 82.6578C76.9514 82.717 75.9912 81.8528 75.932 80.7275L75.7468 77.2071Z" stroke="#3D50F9" stroke-width="1.3"/>
<path d="M79.821 77.0132C79.7618 75.888 80.6259 74.9278 81.7512 74.8686C82.8764 74.8094 83.8366 75.6736 83.8958 76.7988L84.0811 80.3193C84.1403 81.4445 83.2761 82.4047 82.1509 82.4639C81.0256 82.5231 80.0654 81.6589 80.0062 80.5337L79.821 77.0132Z" stroke="#3D50F9" stroke-width="1.3"/>
<path d="M83.9059 76.73C83.8467 75.6048 84.7109 74.6446 85.8362 74.5854C86.9614 74.5262 87.9216 75.3903 87.9808 76.5156L88.1661 80.0361C88.2253 81.1613 87.3611 82.1215 86.2358 82.1807C85.1106 82.2399 84.1504 81.3757 84.0912 80.2505L83.9059 76.73Z" stroke="#3D50F9" stroke-width="1.3"/>
<defs>
<filter id="filter0_d_2926_250" x="0.201588" y="0.744245" width="166.518" height="166.518" filterUnits="userSpaceOnUse" color-interpolation-filters="sRGB">
<feFlood flood-opacity="0" result="BackgroundImageFix"/>
<feColorMatrix in="SourceAlpha" type="matrix" values="0 0 0 0 0 0 0 0 0 0 0 0 0 0 0 0 0 0 127 0" result="hardAlpha"/>
<feOffset dy="15.5412"/>
<feGaussianBlur stdDeviation="19.8582"/>
<feColorMatrix type="matrix" values="0 0 0 0 0.0846931 0 0 0 0 0.0968633 0 0 0 0 0.12526 0 0 0 0.1 0"/>
<feBlend mode="normal" in2="BackgroundImageFix" result="effect1_dropShadow_2926_250"/>
<feBlend mode="normal" in="SourceGraphic" in2="effect1_dropShadow_2926_250" result="shape"/>
</filter>
</defs>
</svg>
