<svg width="40" height="49" viewBox="0 0 40 49" fill="none" xmlns="http://www.w3.org/2000/svg">
<path d="M1.05858 41.2511L7.08485 34.885L8.36874 30.1545C9.16818 27.2089 10.7459 24.5328 12.9363 22.4072L19.2652 16.2656C19.6528 15.8895 20.2736 15.9047 20.6422 16.2994V16.2994C21.6995 17.4317 21.6778 19.1958 20.5929 20.3016L16.3598 24.6164L27.0454 13.7855C27.8962 12.9231 29.2874 12.9214 30.1403 13.7817V13.7817C30.9895 14.6382 30.9802 16.022 30.1195 16.867L22.9738 23.8827L32.8421 14.2327C33.6091 13.4827 34.8369 13.4895 35.5955 14.2481V14.2481C36.366 15.0187 36.3591 16.2701 35.5802 17.0322L25.5651 26.8295L34.1415 18.4651C34.9587 17.6681 36.2625 17.6684 37.0793 18.4659V18.4659C37.9273 19.2939 37.924 20.6589 37.0719 21.4828L27.9079 30.3433L34.4118 24.0442C35.1712 23.3087 36.3836 23.3304 37.1162 24.0926V24.0926C37.8374 24.8429 37.8248 26.0325 37.0878 26.7673L28.0156 35.8135C26.6229 37.2022 25.0806 38.4325 23.417 39.4818L20.6675 41.2161C19.558 41.9159 18.5299 42.7372 17.6023 43.6648L16.8326 44.4344L13.9855 48.2536" stroke="white" stroke-width="1.3" stroke-linecap="round"/>
<path d="M8.30401 31.0885L4.01935 26.7952C3.27018 26.0445 3.25881 24.8326 3.99375 24.068V24.068C4.72123 23.3111 5.91746 23.2665 6.69932 23.967L9.89445 26.8298L4.0698 21.4634C3.19376 20.6562 3.17381 19.2795 4.02611 18.4473V18.4473C4.83248 17.66 6.11938 17.6587 6.92737 18.4443L12.1789 23.5507L5.50525 17.0301C4.72678 16.2694 4.71953 15.0195 5.48911 14.2499V14.2499C6.24791 13.4911 7.47657 13.4859 8.24172 14.2383L14.6918 20.5809L10.9729 16.8901C10.1074 16.0312 10.1017 14.6333 10.9602 13.7673V13.7673C11.8112 12.909 13.1939 12.894 14.0632 13.7337L17.9358 17.474M32.6699 31.0885L33.4004 34.212L39.0586 40.3704M20.4727 41.2753V41.2753C21.544 41.9346 22.5151 42.7444 23.356 43.6799L27.264 48.0273" stroke="white" stroke-width="1.3" stroke-linecap="round"/>
<path d="M25.9957 9.06232L28.373 5.42212" stroke="white" stroke-width="1.3" stroke-linecap="round"/>
<path d="M16.5448 9.13983L14.1211 5.49963" stroke="white" stroke-width="1.3" stroke-linecap="round"/>
<path d="M21.2461 0.749634L21.2461 7.87463" stroke="white" stroke-width="1.3" stroke-linecap="round"/>
</svg>
